<svg width="24" height="22" viewBox="0 0 24 22" fill="none" xmlns="http://www.w3.org/2000/svg">
<path d="M0.359255 9.73487C1.00571 7.0979 2.5029 4.75617 4.6124 3.08267C6.72193 1.40914 9.3225 0.5 12 0.5C14.6775 0.5 17.2781 1.40914 19.3876 3.08267C21.4971 4.75617 22.9943 7.0979 23.6407 9.73487H22.5893C20.8155 9.70837 19.0781 10.2464 17.621 11.2733C17.5369 11.3351 17.4491 11.3916 17.3582 11.4423H17.2355C17.1445 11.3916 17.0567 11.3351 16.9726 11.2733C15.5027 10.2701 13.7714 9.73434 12 9.73434C10.2286 9.73434 8.49735 10.2701 7.02738 11.2733C6.94326 11.3351 6.85547 11.3916 6.76451 11.4423H6.64184C6.55089 11.3916 6.46309 11.3351 6.37897 11.2733C4.92188 10.2464 3.18449 9.70837 1.41073 9.73487H0.359255ZM20.6966 15.3106C21.2364 14.884 21.9054 14.6608 22.5893 14.6792H24V11.8247H22.5893C21.3846 11.8099 20.2076 12.1904 19.2333 12.9096C18.685 13.3198 18.0218 13.5412 17.3406 13.5412C16.6595 13.5412 15.9962 13.3198 15.448 12.9096C14.449 12.2039 13.261 11.8255 12.0438 11.8255C10.8266 11.8255 9.63864 12.2039 8.63965 12.9096C8.09139 13.3198 7.42817 13.5412 6.74699 13.5412C6.0658 13.5412 5.40259 13.3198 4.85433 12.9096C3.86804 12.1812 2.67409 11.8002 1.45455 11.8247H0V14.6792H1.41073C2.09464 14.6608 2.76364 14.884 3.3034 15.3106C4.30055 16.0169 5.48723 16.3956 6.70318 16.3956C7.91912 16.3956 9.10581 16.0169 10.103 15.3106C10.6434 14.8854 11.3119 14.6624 11.9956 14.6792C12.6798 14.6593 13.3492 14.8827 13.8883 15.3106C14.8873 16.0165 16.0753 16.3948 17.2924 16.3948C18.5096 16.3948 19.6976 16.0165 20.6966 15.3106ZM20.6966 20.4151C21.2364 19.9885 21.9054 19.7653 22.5893 19.7837H24V16.9291H22.5893C21.3846 16.9144 20.2076 17.2949 19.2333 18.014C18.685 18.4243 18.0218 18.6456 17.3406 18.6456C16.6595 18.6456 15.9962 18.4243 15.448 18.014C14.449 17.3083 13.261 16.93 12.0438 16.93C10.8266 16.93 9.63864 17.3083 8.63965 18.014C8.09139 18.4243 7.42817 18.6456 6.74699 18.6456C6.0658 18.6456 5.40259 18.4243 4.85433 18.014C3.86804 17.2857 2.67409 16.9047 1.45455 16.9291H0V19.7837H1.41073C2.09464 19.7653 2.76364 19.9885 3.3034 20.4151C4.30055 21.1213 5.48723 21.5 6.70318 21.5C7.91912 21.5 9.10581 21.1213 10.103 20.4151C10.6434 19.9898 11.3119 19.7668 11.9956 19.7837C12.6798 19.7638 13.3492 19.9872 13.8883 20.4151C14.8873 21.1209 16.0753 21.4992 17.2924 21.4992C18.5096 21.4992 19.6976 21.1209 20.6966 20.4151Z" fill="#1E213A"/>
</svg>
