<svg width="97" height="32" viewBox="0 0 97 32" fill="none" xmlns="http://www.w3.org/2000/svg">
<path fill-rule="evenodd" clip-rule="evenodd" d="M-0.00390625 12.8307V22.9726H3.11419C3.44176 22.9726 3.76613 23.0382 4.0688 23.1656C4.3714 23.293 4.64644 23.4797 4.87802 23.7152C5.10967 23.9506 5.29343 24.2302 5.41881 24.5378C5.54411 24.8454 5.60867 25.1751 5.60867 25.5081V28.6774H13.0921L22.4464 19.1694V9.02746H19.3283C19.0007 9.02746 18.6764 8.96188 18.3737 8.83446C18.0711 8.70704 17.7961 8.52027 17.5644 8.28484C17.3328 8.0494 17.1491 7.76987 17.0236 7.46226C16.8984 7.15465 16.8338 6.82495 16.8338 6.49198V3.32263H9.35038L-0.00390625 12.8307ZM10.5976 22.3387H6.23229V15.3662L11.8449 9.66133H16.2102V16.6339L10.5976 22.3387Z" fill="url(#paint0_linear_305_1156)"/>
<path d="M37.1443 7.54545L41.6869 21.2841H41.8659L46.4 7.54545H49.8773L43.7239 25H39.8205L33.6756 7.54545H37.1443ZM51.0799 25V11.9091H54.1651V25H51.0799ZM52.6311 10.0511C52.1424 10.0511 51.722 9.8892 51.3697 9.56534C51.0174 9.23579 50.8413 8.84091 50.8413 8.38068C50.8413 7.91477 51.0174 7.51989 51.3697 7.19602C51.722 6.86648 52.1424 6.7017 52.6311 6.7017C53.1254 6.7017 53.5458 6.86648 53.8924 7.19602C54.2447 7.51989 54.4208 7.91477 54.4208 8.38068C54.4208 8.84091 54.2447 9.23579 53.8924 9.56534C53.5458 9.8892 53.1254 10.0511 52.6311 10.0511ZM56.3777 25V11.9091H59.3692V14.0909H59.5056C59.7442 13.3352 60.1533 12.7528 60.7328 12.3438C61.3181 11.929 61.9857 11.7216 62.7357 11.7216C62.9061 11.7216 63.0965 11.7301 63.3067 11.7472C63.5226 11.7585 63.7016 11.7784 63.8436 11.8068V14.6449C63.713 14.5994 63.5056 14.5597 63.2215 14.5256C62.9431 14.4858 62.6732 14.4659 62.4118 14.4659C61.8493 14.4659 61.3436 14.5881 60.8948 14.8324C60.4516 15.071 60.1022 15.4034 59.8465 15.8295C59.5908 16.2557 59.463 16.7472 59.463 17.304V25H56.3777ZM64.9334 25V11.9091H68.0186V25H64.9334ZM66.4845 10.0511C65.9959 10.0511 65.5754 9.8892 65.2231 9.56534C64.8709 9.23579 64.6947 8.84091 64.6947 8.38068C64.6947 7.91477 64.8709 7.51989 65.2231 7.19602C65.5754 6.86648 65.9959 6.7017 66.4845 6.7017C66.9788 6.7017 67.3993 6.86648 67.7459 7.19602C68.0981 7.51989 68.2743 7.91477 68.2743 8.38068C68.2743 8.84091 68.0981 9.23579 67.7459 9.56534C67.3993 9.8892 66.9788 10.0511 66.4845 10.0511ZM75.9414 25.2557C74.663 25.2557 73.555 24.9744 72.6175 24.4119C71.68 23.8494 70.9528 23.0625 70.4357 22.0511C69.9243 21.0398 69.6687 19.858 69.6687 18.5057C69.6687 17.1534 69.9243 15.9687 70.4357 14.9517C70.9528 13.9347 71.68 13.1449 72.6175 12.5824C73.555 12.0199 74.663 11.7386 75.9414 11.7386C77.2198 11.7386 78.3278 12.0199 79.2653 12.5824C80.2028 13.1449 80.9272 13.9347 81.4385 14.9517C81.9556 15.9687 82.2141 17.1534 82.2141 18.5057C82.2141 19.858 81.9556 21.0398 81.4385 22.0511C80.9272 23.0625 80.2028 23.8494 79.2653 24.4119C78.3278 24.9744 77.2198 25.2557 75.9414 25.2557ZM75.9584 22.7841C76.6516 22.7841 77.2312 22.5937 77.6971 22.2131C78.163 21.8267 78.5096 21.3097 78.7368 20.6619C78.9698 20.0142 79.0863 19.2926 79.0863 18.4972C79.0863 17.696 78.9698 16.9716 78.7368 16.3239C78.5096 15.6705 78.163 15.1506 77.6971 14.7642C77.2312 14.3778 76.6516 14.1847 75.9584 14.1847C75.2482 14.1847 74.6573 14.3778 74.1857 14.7642C73.7198 15.1506 73.3704 15.6705 73.1374 16.3239C72.9101 16.9716 72.7965 17.696 72.7965 18.4972C72.7965 19.2926 72.9101 20.0142 73.1374 20.6619C73.3704 21.3097 73.7198 21.8267 74.1857 22.2131C74.6573 22.5937 75.2482 22.7841 75.9584 22.7841ZM86.958 17.3295V25H83.8727V11.9091H86.8216V14.1335H86.975C87.2761 13.4006 87.7562 12.8182 88.4153 12.3864C89.0801 11.9545 89.9011 11.7386 90.8784 11.7386C91.7818 11.7386 92.5687 11.9318 93.2392 12.3182C93.9153 12.7045 94.4381 13.2642 94.8074 13.9972C95.1824 14.7301 95.367 15.6193 95.3614 16.6648V25H92.2761V17.142C92.2761 16.267 92.0489 15.5824 91.5943 15.0881C91.1455 14.5937 90.5233 14.3466 89.7278 14.3466C89.1881 14.3466 88.708 14.4659 88.2875 14.7045C87.8727 14.9375 87.546 15.2756 87.3074 15.7188C87.0744 16.1619 86.958 16.6989 86.958 17.3295Z" fill="#1E213A"/>
<defs>
<linearGradient id="paint0_linear_305_1156" x1="11.2212" y1="3.32263" x2="11.2212" y2="28.6774" gradientUnits="userSpaceOnUse">
<stop stop-color="#887CF8"/>
<stop offset="1" stop-color="#594BEC"/>
</linearGradient>
</defs>
</svg>
